<?xml version="1.0" encoding="UTF-8"?><svg id="Layer_2" xmlns="http://www.w3.org/2000/svg" viewBox="0 0 127.48 24.13"><defs><style>.cls-1{fill:#f24600;stroke-width:0px;}</style></defs><g id="OBJECTS"><rect class="cls-1" width="127.48" height="1"/><rect class="cls-1" x="63.24" y=".5" width="1" height="23.63"/><rect class="cls-1" x="47.27" y="11.53" width="24.55" height="1" transform="translate(27.88 63.87) rotate(-70.01)"/><rect class="cls-1" x="41.18" y="10.52" width="27.46" height="1" transform="translate(11.17 46) rotate(-49.99)"/><rect class="cls-1" x="32.83" y="8.28" width="33.13" height="1" transform="translate(2.22 25.87) rotate(-29.99)"/><rect class="cls-1" x="18.79" y="3.93" width="45.29" height="1" transform="translate(-.14 7.27) rotate(-10.01)"/><rect class="cls-1" x="67.44" y="-.24" width="1" height="24.55" transform="translate(-.02 23.96) rotate(-20)"/><rect class="cls-1" x="72.06" y="-2.71" width="1" height="27.46" transform="translate(9.89 49.22) rotate(-40)"/><rect class="cls-1" x="77.58" y="-7.78" width="1" height="33.13" transform="translate(31.44 72.01) rotate(-60)"/><rect class="cls-1" x="85.54" y="-18.21" width="1" height="45.29" transform="translate(66.73 88.39) rotate(-80)"/></g></svg>