<?xml version="1.0" encoding="UTF-8"?>
<svg id="Layer_1" data-name="Layer 1" xmlns="http://www.w3.org/2000/svg" version="1.1" viewBox="0 0 100 100">
  <defs>
    <style>
      .cls-1 {
        fill: #f24600;
        stroke-width: 0px;
      }
    </style>
  </defs>
  <path class="cls-1" d="M10,16c-2.2,0-4,1.7-4.1,3.9,0,2.2,1.7,4,3.9,4.1,0,0,0,0,.1,0h80c2.2,0,4-1.7,4.1-3.9s-1.7-4-3.9-4.1c0,0,0,0-.1,0H10ZM10,46c-2.2,0-4,1.7-4.1,3.9,0,2.2,1.7,4,3.9,4.1,0,0,0,0,.1,0h80c2.2,0,4-1.7,4.1-3.9,0-2.2-1.7-4-3.9-4.1,0,0,0,0-.1,0H10ZM10,76c-2.2,0-4,1.7-4.1,3.9,0,2.2,1.7,4,3.9,4.1,0,0,0,0,.1,0h80c2.2,0,4-1.7,4.1-3.9s-1.7-4-3.9-4.1c0,0,0,0-.1,0H10Z"/>
</svg>