<?xml version="1.0" encoding="UTF-8"?><svg id="Layer_2" xmlns="http://www.w3.org/2000/svg" viewBox="0 0 82.85 78.28"><defs><style>.cls-1{fill:#ffc7ed;}.cls-1,.cls-2{stroke:#f24600;stroke-miterlimit:10;}.cls-2{fill:#f24600;}</style></defs><g id="OBJECTS"><path class="cls-2" d="M.5,76.67c12.21-.33,13.1-5.88,13.1-16.54V17.93C13.6,5.83,12.16,2.17.5,1.61V.5h36.42c20.1,0,33.31,4.66,33.31,18.54,0,10.22-8.33,16.21-21.1,17.43v.56c15.99,1.33,26.21,7.44,26.21,19.88s-9.88,17.66-18.43,19.43c-5.33,1.11-12.21,1.44-18.54,1.44H.5v-1.11ZM32.81,36.7c14.77,0,17.77-7.22,17.77-17.1,0-11.44-6-17.43-18.32-17.43-.22,2.55-.33,8.33-.33,12.33v22.21h.89ZM54.8,57.35c-.44-10.44-5.66-18.88-22.1-18.88h-.78v28.76c0,6.11,3.22,8.88,9.55,8.88,9.44,0,13.77-7.55,13.32-18.77Z"/><path class="cls-1" d="M7.51,76.67c12.21-.33,13.1-5.88,13.1-16.54V17.93c0-12.1-1.44-15.77-13.1-16.32V.5h36.42c20.1,0,33.31,4.66,33.31,18.54,0,10.22-8.33,16.21-21.1,17.43v.56c15.99,1.33,26.21,7.44,26.21,19.88s-9.88,17.66-18.43,19.43c-5.33,1.11-12.21,1.44-18.54,1.44H7.51v-1.11ZM39.82,36.7c14.77,0,17.77-7.22,17.77-17.1,0-11.44-6-17.43-18.32-17.43-.22,2.55-.33,8.33-.33,12.33v22.21h.89ZM61.81,57.35c-.44-10.44-5.66-18.88-22.1-18.88h-.78v28.76c0,6.11,3.22,8.88,9.55,8.88,9.44,0,13.77-7.55,13.32-18.77Z"/></g></svg>