<?xml version="1.0" encoding="UTF-8"?><svg id="Layer_2" xmlns="http://www.w3.org/2000/svg" viewBox="0 0 82.85 109.19"><defs><style>.cls-1{fill:#ffc7ed;}.cls-1,.cls-2{stroke-width:0px;}.cls-2,.cls-3{fill:#f24600;}.cls-3{stroke:#f24600;stroke-miterlimit:10;}</style></defs><g id="OBJECTS"><path class="cls-3" d="M.5,76.67c12.21-.33,13.1-5.88,13.1-16.54V17.93C13.6,5.83,12.16,2.17.5,1.61V.5h36.42c20.1,0,33.31,4.66,33.31,18.54,0,10.22-8.33,16.21-21.1,17.43v.56c15.99,1.33,26.21,7.44,26.21,19.88s-9.88,17.66-18.43,19.43c-5.33,1.11-12.21,1.44-18.54,1.44H.5v-1.11ZM32.81,36.7c14.77,0,17.77-7.22,17.77-17.1,0-11.44-6-17.43-18.32-17.43-.22,2.55-.33,8.33-.33,12.33v22.21h.89ZM54.8,57.35c-.44-10.44-5.66-18.88-22.1-18.88h-.78v28.76c0,6.11,3.22,8.88,9.55,8.88,9.44,0,13.77-7.55,13.32-18.77Z"/><path class="cls-1" d="M56.14,37.03v-.56c12.77-1.22,21.1-7.22,21.1-17.43C77.24,5.16,64.03.5,43.93.5H7.51v1.11c11.66.56,13.1,4.22,13.1,16.32v42.19c0,10.66-.89,16.21-13.1,16.54v1.11h37.86c6.33,0,13.21-.33,18.54-1.44,8.55-1.78,18.43-7.22,18.43-19.43s-10.22-18.54-26.21-19.88ZM38.93,14.49c0-4,.11-9.77.33-12.33,12.33,0,18.32,6,18.32,17.43,0,9.88-3,17.1-17.77,17.1h-.89V14.49ZM48.48,76.12c-6.33,0-9.55-2.78-9.55-8.88v-28.76h.78c16.43,0,21.65,8.44,22.1,18.88.44,11.22-3.89,18.77-13.32,18.77Z"/><path class="cls-2" d="M45.37,78.28H7.01v-2.1h.49c11.48-.33,12.62-4.9,12.62-16.06V17.93c0-12.16-1.49-15.29-12.63-15.82l-.48-.02V0h36.92c22.75,0,33.81,6.23,33.81,19.04,0,9.57-7.08,15.95-19.51,17.69,16.12,1.82,24.62,8.77,24.62,20.17,0,4.81-1.83,16.39-18.83,19.92-4.63.96-10.9,1.45-18.65,1.45ZM8.01,77.28h37.36c7.67,0,13.88-.48,18.44-1.43,5.42-1.13,18.03-5.23,18.03-18.94,0-7.86-4.47-17.6-25.75-19.38l-.46-.04v-1.47l.45-.04c13.12-1.25,20.64-7.43,20.64-16.93,0-12.31-10.43-18.04-32.81-18.04H8.01v.14c11.37.64,13.1,4.44,13.1,16.8v42.19c0,10.21-.64,16.53-13.1,17.03v.13ZM48.48,76.62c-6.76,0-10.05-3.07-10.05-9.38v-29.26h1.28c14.45,0,22.05,6.51,22.6,19.35.27,6.92-1.25,12.31-4.42,15.61-2.35,2.44-5.51,3.68-9.4,3.68ZM39.43,38.98v28.26c0,5.72,2.88,8.38,9.05,8.38,3.61,0,6.53-1.13,8.68-3.37,2.97-3.09,4.4-8.24,4.14-14.87-.53-12.38-7.59-18.4-21.6-18.4h-.28ZM39.82,37.2h-1.39V14.49c0-4.12.12-9.86.33-12.37l.04-.46h.46c12.49,0,18.82,6.03,18.82,17.93,0,5.89-1.07,9.77-3.46,12.58-2.88,3.38-7.73,5.02-14.8,5.02ZM39.43,36.2h.39c15.17,0,17.27-7.98,17.27-16.6,0-11.09-5.84-16.78-17.36-16.93-.19,2.67-.29,7.96-.29,11.82v21.71Z"/><path class="cls-2" d="M14.5,102.58h-2.27v-6.71h1.76c.55,0,.99.07,1.3.22.31.15.55.35.71.62.16.26.25.56.25.9,0,.66-.34,1.13-1.02,1.42.49.09.88.29,1.17.6.29.31.43.68.43,1.11,0,.34-.09.65-.26.92-.18.27-.43.49-.78.66-.34.17-.77.25-1.28.25ZM14.02,96.72h-.83v2.02h.64c.51,0,.88-.1,1.09-.29.22-.2.32-.45.32-.76,0-.64-.41-.96-1.23-.96ZM14.09,99.59h-.9v2.13h.95c.52,0,.88-.04,1.07-.12.19-.08.34-.21.45-.38s.17-.36.17-.56-.06-.39-.18-.56c-.12-.17-.29-.3-.51-.38-.22-.08-.57-.12-1.05-.12Z"/><path class="cls-2" d="M21.32,95.87h.96v6.71h-.96v-6.71Z"/><path class="cls-2" d="M26.98,95.86h5.78l-4.28,5.86h4.28v.85h-6.05l4.29-5.86h-4.02v-.85Z"/><path class="cls-2" d="M36.88,95.86h5.78l-4.28,5.86h4.28v.85h-6.05l4.29-5.86h-4.02v-.85Z"/><path class="cls-2" d="M49.27,95.83h.67l3.01,6.75h-.98l-.89-1.99h-2.86l-.84,1.99h-.99l2.88-6.75ZM50.68,99.73l-1.08-2.43-1,2.43h2.09Z"/><path class="cls-2" d="M57.26,102.58v-6.71h1.68c.68,0,1.22.17,1.62.5s.6.79.6,1.36c0,.39-.1.73-.29,1.01-.2.28-.48.5-.84.64.21.14.42.33.63.58.21.24.49.67.86,1.27.23.38.42.67.56.86l.35.48h-1.14l-.29-.44s-.03-.04-.06-.08l-.19-.26-.3-.49-.32-.52c-.2-.28-.38-.49-.54-.66s-.31-.28-.45-.35c-.13-.07-.36-.11-.67-.11h-.25v2.92h-.96ZM58.51,96.68h-.29v2.12h.36c.49,0,.82-.04,1-.12.18-.08.32-.21.42-.38s.15-.36.15-.57-.06-.4-.17-.57c-.11-.17-.27-.29-.47-.36-.2-.07-.54-.11-1.01-.11Z"/><path class="cls-2" d="M66.72,95.87h3.8v.85h-2.84v2.04h2.75v.86h-2.75v2.08h2.93v.85h-3.89v-6.7Z"/><path class="cls-2" d="M82.46,109.19H.38v-19.97h82.08v19.97ZM1.38,108.19h80.08v-17.97H1.38v17.97Z"/></g></svg>